<svg width="20" height="20" xmlns="http://www.w3.org/2000/svg"><path d="m19.967 9.707-.033-.034c-.434-.266-.967-.4-1.534-.4 0-.066-.066-.566-.1-.666a2.82 2.82 0 0 0 1.367-.8l.033-.034V7.74c-.033-.2-.1-.467-.166-.633v-.034H19.5a3.117 3.117 0 0 0-1.566 0c-.034-.066-.234-.533-.234-.6a2.768 2.768 0 0 0 1.1-1.133v-.067c-.066-.166-.2-.4-.333-.566v-.034h-.033c-.5 0-1.034.134-1.534.4-.033-.066-.366-.466-.4-.533.367-.4.667-.867.8-1.367V3.14l-.033-.033a3.08 3.08 0 0 0-.467-.467h-.066c-.5.133-.967.4-1.367.8-.067-.033-.467-.367-.533-.4.266-.467.4-1 .4-1.5v-.067H15.2c-.133-.133-.4-.266-.566-.333h-.067a2.904 2.904 0 0 0-1.1 1.1c-.067-.033-.567-.233-.633-.267.066-.266.1-.533.1-.8 0-.266-.034-.533-.1-.766V.373H12.8a3.515 3.515 0 0 0-.633-.166h-.033L12.1.24c-.366.333-.633.833-.8 1.367-.066 0-.6-.067-.666-.1 0-.534-.167-1.1-.4-1.534V-.06h.1c-.2.067-.467.067-.667.1h-.034v.033c-.266.434-.4.967-.4 1.534-.066 0-.6.066-.666.1C8.4 1.173 8.133.673 7.767.34L7.733.307H7.7c-.2.033-.467.1-.633.166h-.034v.034a3.287 3.287 0 0 0 0 1.6c-.033-.034-.533.2-.6.233a2.904 2.904 0 0 0-1.1-1.1h-.066c-.167.067-.4.2-.567.333h-.033v.067c0 .5.166 1.033.4 1.5a5.251 5.251 0 0 0-.5.4c-.4-.367-.867-.667-1.367-.8h-.033v-.033c-.134.1-.334.3-.434.466v.067c.134.467.4.967.8 1.367-.033.066-.366.5-.4.533-.466-.267-1.033-.433-1.533-.4h-.033v.033a4.25 4.25 0 0 0-.334.567v.067c.234.433.634.833 1.1 1.133-.033.067-.2.533-.233.6-.533-.133-1.1-.133-1.567 0H.5v.033a3.516 3.516 0 0 0-.167.634v.033l.034.033c.333.367.833.634 1.366.8 0 .067-.066.6-.1.667-.533 0-1.1.167-1.533.4H.067v.033c-.067 0-.067.1-.067.234 0 .133 0 .233.033.333v.033h.034c.433.267.966.4 1.533.4 0 .067.067.6.1.667-.533.167-1 .433-1.367.8l-.033.033v.034c.033.2.1.466.167.633v.033H.5a3.117 3.117 0 0 0 1.567 0c.033.034.233.5.266.567a2.904 2.904 0 0 0-1.1 1.1v.067c.067.166.2.4.334.566l.033.034h.033c.5 0 1.034-.134 1.534-.4.033.066.366.466.4.533a3.161 3.161 0 0 0-.8 1.367v.066c.1.134.3.334.466.467l.034.033H3.3c.5-.133.967-.4 1.367-.8.066.034.466.367.533.4-.267.467-.4 1-.4 1.5v.067l.033.033c.134.1.367.234.567.334h.067c.433-.234.833-.667 1.133-1.134.067.034.533.2.6.234a3.287 3.287 0 0 0 0 1.6v.033h.033c.167.067.434.133.634.167H7.9l.033-.034c.367-.366.634-.833.767-1.366.067 0 .6.1.667.1 0 .533.166 1.1.4 1.533v.033H9.8c.2.034.467.034.634 0h.033v-.033c.267-.433.4-.967.4-1.533.067 0 .567-.067.633-.1a2.82 2.82 0 0 0 .8 1.366h.067c.2-.033.467-.1.633-.166h.034v-.034a3.287 3.287 0 0 0 0-1.6c.066-.033.533-.233.6-.266a3.26 3.26 0 0 0 1.1 1.133h.066c.167-.067.4-.2.567-.333h.033v-.067c0-.467-.166-1-.4-1.5a6.56 6.56 0 0 0 .5-.4c.4.367.9.667 1.367.8h.033l.034-.033c.133-.134.333-.3.466-.467l.034-.033v-.034a3.214 3.214 0 0 0-.8-1.366c.033-.067.366-.467.4-.534a3.19 3.19 0 0 0 1.533.4h.033l.034-.033c.133-.167.266-.4.333-.567v-.066c-.233-.434-.633-.834-1.1-1.134.033-.066.2-.533.233-.6.534.134 1.1.134 1.567 0h.033v-.033c.067-.167.134-.433.167-.633v-.034l-.033-.033c-.334-.367-.834-.633-1.367-.8 0-.067.067-.567.1-.633.533 0 1.1-.167 1.533-.4h.034v-.034c0-.1.033-.2.033-.333s-.167-.167-.2-.233M10 17.44c-4.133 0-7.5-3.367-7.5-7.5s3.367-7.5 7.5-7.5c4.134 0 7.5 3.367 7.5 7.5s-3.366 7.5-7.5 7.5m0-14.1c-3.633 0-6.6 2.967-6.6 6.6 0 3.633 2.967 6.6 6.6 6.6 3.634 0 6.6-2.967 6.6-6.6 0-3.633-2.966-6.6-6.6-6.6m.833 1.067c.067-.067.167-.034.234-.034 1.333.334 2.3.867 3.233 1.867.067.067.1.133.1.2v.033c-.033.1-.133.134-.2.2l-2.766 1.334a.25.25 0 0 1-.3 0C11.066 7.973 11 7.873 11 7.74l-.233-3.067c0-.133 0-.2.066-.266M5.7 6.307c.967-1 1.933-1.567 3.233-1.867a.205.205 0 0 1 .234.033c.066.034.066.134.066.3L9 7.807c0 .133-.067.2-.133.266a.46.46 0 0 1-.3 0L5.8 6.74c-.1-.033-.2-.1-.2-.2-.033-.1 0-.167.1-.233m-.667 5.7c-.133.066-.2.1-.266.1-.067-.034-.1-.1-.134-.2-.4-1.3-.4-2.434 0-3.767.034-.1.067-.167.134-.2.1-.033.166.033.266.1l2.534 1.733c.1.067.166.167.166.234 0 .1-.066.166-.133.233zm4.167 3.6c-.067.066-.133.033-.233 0-1.334-.3-2.3-.867-3.234-1.867-.066-.067-.1-.133-.1-.2v-.033c0-.1.134-.134.2-.2L8.6 11.973a.25.25 0 0 1 .3 0c.067.034.133.134.133.267l.234 3.067c.033.166 0 .233-.067.3m.8-3.834c-1 0-1.8-.8-1.8-1.8 0-.6.3-1.166.8-1.5.167-.1.4-.066.5.1.1.167.067.4-.1.5-.3.2-.467.534-.467.9 0 .6.467 1.067 1.067 1.067.6 0 1.067-.467 1.067-1.067 0-.366-.167-.7-.5-.9-.167-.1-.2-.333-.1-.5.1-.166.333-.2.5-.1.5.334.8.9.8 1.5.033.967-.767 1.8-1.767 1.8m4.3 1.934c-.933 1-1.9 1.566-3.233 1.866-.1.034-.2.034-.234-.033-.066-.067-.066-.167-.066-.267L11 12.207c0-.134.067-.2.133-.267a.46.46 0 0 1 .3 0l2.767 1.333c.134.067.2.134.2.2.034.1-.033.167-.1.234m.967-5.767c.067.033.1.1.133.2.4 1.3.4 2.433 0 3.767-.033.1-.066.166-.133.2-.1.033-.167-.034-.267-.1l-2.566-1.734c-.1-.066-.167-.166-.167-.266s.067-.167.167-.267L15 8.007c.1-.067.2-.1.267-.067" style="fill:#fff;stroke-width:.333336"/></svg>