<svg xmlns="http://www.w3.org/2000/svg" viewBox="0 0 60 60"><path d="m59.9 29.1-.1-.1c-1.3-.8-2.9-1.2-4.6-1.2 0-.2-.2-1.7-.3-2 1.6-.4 3.1-1.3 4.1-2.4l.1-.1v-.1c-.1-.6-.3-1.4-.5-1.9v-.1h-.1c-1.4-.4-3.2-.4-4.7 0-.1-.2-.7-1.6-.7-1.8 1.4-.8 2.6-2 3.3-3.4v-.2c-.2-.5-.6-1.2-1-1.7V14h-.1c-1.5 0-3.1.4-4.6 1.2-.1-.2-1.1-1.4-1.2-1.6 1.1-1.2 2-2.6 2.4-4.1v-.1l-.1-.1c-.3-.4-.9-1-1.4-1.4h-.2c-1.5.4-2.9 1.2-4.1 2.4-.2-.1-1.4-1.1-1.6-1.2.8-1.4 1.2-3 1.2-4.5v-.2h-.1c-.4-.4-1.2-.8-1.7-1h-.2c-1.3.7-2.5 1.9-3.3 3.3-.2-.1-1.7-.7-1.9-.8.2-.8.3-1.6.3-2.4 0-.8-.1-1.6-.3-2.3v-.1h-.1c-.5-.2-1.3-.4-1.9-.5h-.1l-.1.1c-1.1 1-1.9 2.5-2.4 4.1-.2 0-1.8-.2-2-.3 0-1.6-.5-3.3-1.2-4.6v-.1h.3c-.6.2-1.4.2-2 .3h-.1v.1c-.8 1.3-1.2 2.9-1.2 4.6-.2 0-1.8.2-2 .3-.5-1.6-1.3-3.1-2.4-4.1l-.1-.1h-.1c-.6.1-1.4.3-1.9.5h-.1v.1c-.2.7-.3 1.5-.3 2.4 0 .8.1 1.6.3 2.4-.1-.1-1.6.6-1.8.7-.8-1.4-2-2.6-3.3-3.3h-.2c-.5.2-1.2.6-1.7 1H14v.2c0 1.5.5 3.1 1.2 4.5-.2.1-1.3 1-1.5 1.2-1.2-1.1-2.6-2-4.1-2.4h-.1v-.1c-.4.3-1 .9-1.3 1.4v.2c.4 1.4 1.2 2.9 2.4 4.1-.1.2-1.1 1.5-1.2 1.6-1.4-.8-3.1-1.3-4.6-1.2h-.1v.1c-.3.4-.7 1.1-1 1.7v.2c.7 1.3 1.9 2.5 3.3 3.4-.1.2-.6 1.6-.7 1.8-1.6-.4-3.3-.4-4.7 0h-.1v.1c-.2.5-.4 1.3-.5 1.9v.1l.1.1c1 1.1 2.5 1.9 4.1 2.4 0 .2-.2 1.8-.3 2-1.6 0-3.3.5-4.6 1.2H.2v.1c-.2 0-.2.3-.2.7 0 .4 0 .7.1 1v.1h.1c1.3.8 2.9 1.2 4.6 1.2 0 .2.2 1.8.3 2-1.6.5-3 1.3-4.1 2.4l-.1.1v.1c.1.6.3 1.4.5 1.9v.1h.1c1.4.4 3.2.4 4.7 0 .1.1.7 1.5.8 1.7-1.4.8-2.6 2-3.3 3.3v.2c.2.5.6 1.2 1 1.7l.1.1h.1c1.5 0 3.1-.4 4.6-1.2.1.2 1.1 1.4 1.2 1.6-1.1 1.1-2 2.6-2.4 4.1v.2c.3.4.9 1 1.4 1.4l.1.1h.1c1.5-.4 2.9-1.2 4.1-2.4.2.1 1.4 1.1 1.6 1.2-.8 1.4-1.2 3-1.2 4.5v.2l.1.1c.4.3 1.1.7 1.7 1h.2c1.3-.7 2.5-2 3.4-3.4.2.1 1.6.6 1.8.7-.2.8-.3 1.6-.3 2.4 0 .8.1 1.6.3 2.4v.1h.1c.5.2 1.3.4 1.9.5h.1l.1-.1c1.1-1.1 1.9-2.5 2.3-4.1.2 0 1.8.3 2 .3 0 1.6.5 3.3 1.2 4.6v.1h.1c.6.1 1.4.1 1.9 0h.1v-.1c.8-1.3 1.2-2.9 1.2-4.6.2 0 1.7-.2 1.9-.3.4 1.6 1.3 3.1 2.4 4.1h.2c.6-.1 1.4-.3 1.9-.5h.1v-.1c.2-.7.3-1.5.3-2.4 0-.8-.1-1.6-.3-2.4.2-.1 1.6-.7 1.8-.8.8 1.4 2 2.6 3.3 3.4h.2c.5-.2 1.2-.6 1.7-1h.1v-.2c0-1.4-.5-3-1.2-4.5.2-.1 1.4-1.1 1.5-1.2 1.2 1.1 2.7 2 4.1 2.4h.1l.1-.1c.4-.4 1-.9 1.4-1.4l.1-.1v-.1c-.4-1.4-1.2-2.9-2.4-4.1.1-.2 1.1-1.4 1.2-1.6 1.4.8 3.1 1.2 4.6 1.2h.1l.1-.1c.4-.5.8-1.2 1-1.7v-.2c-.7-1.3-1.9-2.5-3.3-3.4.1-.2.6-1.6.7-1.8 1.6.4 3.3.4 4.7 0h.1v-.1c.2-.5.4-1.3.5-1.9v-.1l-.1-.1c-1-1.1-2.5-1.9-4.1-2.4 0-.2.2-1.7.3-1.9 1.6 0 3.3-.5 4.6-1.2h.1v-.1c0-.3.1-.6.1-1s-.5-.5-.6-.7M30 52.3c-12.4 0-22.5-10.1-22.5-22.5S17.6 7.3 30 7.3s22.5 10.1 22.5 22.5S42.4 52.3 30 52.3M30 10c-10.9 0-19.8 8.9-19.8 19.8S19.1 49.6 30 49.6s19.8-8.9 19.8-19.8S40.9 10 30 10m2.5 3.2c.2-.2.5-.1.7-.1 4 1 6.9 2.6 9.7 5.6.2.2.3.4.3.6v.1c-.1.3-.4.4-.6.6l-8.3 4c-.3.2-.6.2-.9 0-.2-.1-.4-.4-.4-.8l-.7-9.2c0-.4 0-.6.2-.8m-15.4 5.7c2.9-3 5.8-4.7 9.7-5.6.2-.1.5-.1.7.1.2.1.2.4.2.9l-.7 9.1c0 .4-.2.6-.4.8-.2.1-.6.1-.9 0l-8.3-4c-.3-.1-.6-.3-.6-.6-.1-.3 0-.5.3-.7m-2 17.1c-.4.2-.6.3-.8.3-.2-.1-.3-.3-.4-.6-1.2-3.9-1.2-7.3 0-11.3.1-.3.2-.5.4-.6.3-.1.5.1.8.3l7.6 5.2c.3.2.5.5.5.7 0 .3-.2.5-.4.7L15.1 36zm12.5 10.8c-.2.2-.4.1-.7 0-4-.9-6.9-2.6-9.7-5.6-.2-.2-.3-.4-.3-.6v-.1c0-.3.4-.4.6-.6l8.3-4c.3-.2.6-.2.9 0 .2.1.4.4.4.8l.7 9.2c.1.5 0 .7-.2.9M30 35.3c-3 0-5.4-2.4-5.4-5.4 0-1.8.9-3.5 2.4-4.5.5-.3 1.2-.2 1.5.3.3.5.2 1.2-.3 1.5-.9.6-1.4 1.6-1.4 2.7 0 1.8 1.4 3.2 3.2 3.2 1.8 0 3.2-1.4 3.2-3.2 0-1.1-.5-2.1-1.5-2.7-.5-.3-.6-1-.3-1.5s1-.6 1.5-.3c1.5 1 2.4 2.7 2.4 4.5.1 2.9-2.3 5.4-5.3 5.4m12.9 5.8c-2.8 3-5.7 4.7-9.7 5.6-.3.1-.6.1-.7-.1-.2-.2-.2-.5-.2-.8l.7-9.2c0-.4.2-.6.4-.8.2-.1.6-.1.9 0l8.3 4c.4.2.6.4.6.6.1.3-.1.5-.3.7m2.9-17.3c.2.1.3.3.4.6 1.2 3.9 1.2 7.3 0 11.3-.1.3-.2.5-.4.6-.3.1-.5-.1-.8-.3l-7.7-5.2c-.3-.2-.5-.5-.5-.8 0-.3.2-.5.5-.8L45 24c.3-.2.6-.3.8-.2" style="fill:#fff"/></svg>
